<svg width="55" height="55" viewBox="0 0 55 55" fill="none" xmlns="http://www.w3.org/2000/svg">
<circle cx="27.5" cy="27.5" r="27.5" fill="#284E43"/>
<path d="M21.089 28.7814C25.8967 24.1792 29.3552 20.8687 34.8213 15.6363C38.1089 16.6606 39.8682 19.9045 40.3369 21.3983L26.6045 34.5434M21.089 28.7814C21.4206 30.5086 22.988 34.0793 26.6045 34.5434M21.089 28.7814C20.4854 29.3591 19.8606 29.9572 19.2078 30.582M26.6045 34.5434L24.7234 36.344M24.7234 36.344L23.5947 37.4245C23.5947 37.4245 15.911 39.5654 15.7578 39.4053C15.6046 39.2453 18.0791 31.6625 18.0791 31.6625C18.465 31.2931 18.8408 30.9334 19.2078 30.582M24.7234 36.344C21.6218 35.802 19.7866 34.1994 19.2078 30.582" stroke="white" stroke-width="3" stroke-linecap="round"/>
</svg>
