<svg width="55" height="55" viewBox="0 0 55 55" fill="none" xmlns="http://www.w3.org/2000/svg">
<circle cx="27.5" cy="27.5" r="27.5" fill="#448461"/>
<path fill-rule="evenodd" clip-rule="evenodd" d="M18.0794 31.6625C18.4652 31.2931 18.8411 30.9334 19.2081 30.582C19.8608 29.9572 20.4856 29.3591 21.0892 28.7814C25.897 24.1792 29.3554 20.8687 34.8216 15.6363C38.1092 16.6606 39.8684 19.9045 40.3371 21.3983L26.6048 34.5434L24.7236 36.344L23.5949 37.4245C23.5949 37.4245 15.9113 39.5654 15.7581 39.4053C15.6049 39.2453 18.0794 31.6625 18.0794 31.6625Z" fill="#448461"/>
<path d="M21.0892 28.7814C25.897 24.1792 29.3554 20.8687 34.8216 15.6363C38.1092 16.6606 39.8684 19.9045 40.3371 21.3983L26.6048 34.5434M21.0892 28.7814C21.4209 30.5086 22.9883 34.0793 26.6048 34.5434M21.0892 28.7814C20.4856 29.3591 19.8608 29.9572 19.2081 30.582M26.6048 34.5434L24.7236 36.344M24.7236 36.344L23.5949 37.4245C23.5949 37.4245 15.9113 39.5654 15.7581 39.4053C15.6049 39.2453 18.0794 31.6625 18.0794 31.6625C18.4652 31.2931 18.8411 30.9334 19.2081 30.582M24.7236 36.344C21.6221 35.802 19.7868 34.1994 19.2081 30.582" stroke="white" stroke-width="3" stroke-linecap="round"/>
</svg>
