<svg width="41" height="40" viewBox="0 0 41 40" fill="none" xmlns="http://www.w3.org/2000/svg">
<path d="M9.77668 22.2728C17.1979 15.169 22.5363 10.0589 30.9739 1.98222C36.0486 3.56335 38.7642 8.5705 39.4877 10.8764L18.2905 31.167M9.77668 22.2728C10.2886 24.9391 12.7081 30.4506 18.2905 31.167M9.77668 22.2728C8.84502 23.1647 7.88053 24.0879 6.87296 25.0524M18.2905 31.167L15.3868 33.9466M15.3868 33.9466L13.6445 35.6143C13.6445 35.6143 1.78403 38.919 1.54754 38.672C1.31106 38.4249 5.13071 26.7201 5.13071 26.7201C5.72629 26.15 6.30643 25.5947 6.87296 25.0524M15.3868 33.9466C10.5992 33.1099 7.7663 30.636 6.87296 25.0524" stroke="white" stroke-width="2" stroke-linecap="round"/>
</svg>
