<svg width="40" height="41" viewBox="0 0 40 41" fill="none" xmlns="http://www.w3.org/2000/svg">
<g clip-path="url(#clip0_358_83)">
<path d="M40 20.6667C40 9.62106 31.0456 0.666687 20 0.666687C8.95437 0.666687 0 9.62106 0 20.6667C0 30.6492 7.31375 38.9234 16.875 40.4237V26.4479H11.7969V20.6667H16.875V16.2604C16.875 11.2479 19.8609 8.47919 24.4294 8.47919C26.6175 8.47919 28.9062 8.86981 28.9062 8.86981V13.7917H26.3844C23.8998 13.7917 23.125 15.3334 23.125 16.9151V20.6667H28.6719L27.7852 26.4479H23.125V40.4237C32.6862 38.9234 40 30.6493 40 20.6667Z" fill="#1877F2"/>
<path d="M27.7852 26.4479L28.6719 20.6667H23.125V16.9151C23.125 15.3332 23.8998 13.7917 26.3844 13.7917H28.9062V8.86981C28.9062 8.86981 26.6175 8.47919 24.4292 8.47919C19.8609 8.47919 16.875 11.2479 16.875 16.2604V20.6667H11.7969V26.4479H16.875V40.4237C17.9088 40.5857 18.9536 40.6669 20 40.6667C21.0464 40.6669 22.0912 40.5857 23.125 40.4237V26.4479H27.7852Z" fill="white"/>
</g>
<defs>
<clipPath id="clip0_358_83">
<rect width="40" height="40" fill="white" transform="translate(0 0.666687)"/>
</clipPath>
</defs>
</svg>
