<svg width="40" height="47" viewBox="0 0 40 47" fill="none" xmlns="http://www.w3.org/2000/svg">
<path d="M5.71429 3.54169C2.5625 3.54169 0 6.1202 0 9.29169V38.0417C0 41.2132 2.5625 43.7917 5.71429 43.7917H34.2857C37.4375 43.7917 40 41.2132 40 38.0417V9.29169C40 6.1202 37.4375 3.54169 34.2857 3.54169H5.71429ZM32.2411 11.0886L22.9732 21.744L33.875 36.2448H25.3393L18.6607 27.4491L11.0089 36.2448H6.76786L16.6786 24.8436L6.22321 11.0886H14.9732L21.0179 19.1296L28 11.0886H32.2411ZM28.8661 33.6933L13.6964 13.5054H11.1696L26.5089 33.6933H28.8571H28.8661Z" fill="black"/>
</svg>
