<svg width="41" height="41" viewBox="0 0 41 41" fill="none" xmlns="http://www.w3.org/2000/svg">
<g clip-path="url(#clip0_358_86)">
<path d="M14.4344 1.98231C10.4378 3.36877 6.99112 6.00033 4.60064 9.49044C2.21016 12.9805 1.00189 17.1453 1.1533 21.3728C1.30471 25.6004 2.80782 29.668 5.44185 32.9781C8.07587 36.2883 11.702 38.6666 15.7875 39.7636C19.0998 40.6182 22.5701 40.6558 25.9 39.8729C28.9167 39.1953 31.7056 37.7459 33.9938 35.6667C36.3753 33.4365 38.1039 30.5994 38.9938 27.4604C39.961 24.0469 40.1332 20.4571 39.4969 16.9667H20.8969V24.6823H31.6688C31.4535 25.9129 30.9922 27.0874 30.3124 28.1355C29.6326 29.1837 28.7484 30.0839 27.7125 30.7823C26.3972 31.6524 24.9144 32.2378 23.3594 32.5011C21.7999 32.791 20.2002 32.791 18.6407 32.5011C17.06 32.1743 15.5647 31.5219 14.25 30.5854C12.138 29.0904 10.5522 26.9664 9.71879 24.5167C8.87134 22.021 8.87134 19.3155 9.71879 16.8198C10.312 15.0705 11.2926 13.4777 12.5875 12.1604C14.0694 10.6253 15.9455 9.52792 18.0099 8.98879C20.0744 8.44967 22.2474 8.48959 24.2907 9.10418C25.8868 9.59415 27.3464 10.4502 28.5532 11.6042C29.7678 10.3958 30.9803 9.18439 32.1907 7.96981C32.8157 7.31668 33.4969 6.69481 34.1125 6.02606C32.2706 4.31192 30.1084 2.97811 27.75 2.10106C23.4554 0.541649 18.7562 0.499742 14.4344 1.98231Z" fill="white"/>
<path d="M14.4342 1.9823C18.7556 0.498727 23.4548 0.539531 27.7498 2.09792C30.1086 2.98094 32.2698 4.32117 34.1092 6.04167C33.4842 6.71042 32.8248 7.33542 32.1873 7.98542C30.9748 9.19584 29.7633 10.4021 28.5529 11.6042C27.3462 10.4502 25.8866 9.59415 24.2904 9.10417C22.2479 8.48743 20.0749 8.4452 18.0099 8.98212C15.9449 9.51904 14.0677 10.6144 12.5842 12.1479C11.2893 13.4652 10.3086 15.058 9.71543 16.8073L3.2373 11.7917C5.55608 7.19343 9.5709 3.67612 14.4342 1.9823Z" fill="#E33629"/>
<path d="M1.51835 16.7604C1.86654 15.0348 2.44461 13.3636 3.2371 11.7917L9.71523 16.8198C8.86777 19.3155 8.86777 22.021 9.71523 24.5167C7.55689 26.1834 5.39752 27.8584 3.2371 29.5417C1.2532 25.5927 0.64814 21.0933 1.51835 16.7604Z" fill="#F8BD00"/>
<path d="M20.8969 16.9636H39.4969C40.1331 20.454 39.961 24.0438 38.9938 27.4573C38.1039 30.5963 36.3753 33.4334 33.9938 35.6636C31.9031 34.0323 29.8031 32.4136 27.7125 30.7823C28.749 30.0832 29.6337 29.182 30.3135 28.1327C30.9933 27.0835 31.4543 25.9078 31.6688 24.6761H20.8969C20.8938 22.1073 20.8969 19.5354 20.8969 16.9636Z" fill="#587DBD"/>
<path d="M3.23438 29.5417C5.39479 27.875 7.55417 26.2 9.7125 24.5167C10.5475 26.9673 12.1356 29.0914 14.25 30.5854C15.5688 31.5175 17.0673 32.1646 18.65 32.4854C20.2096 32.7754 21.8092 32.7754 23.3687 32.4854C24.9237 32.2222 26.4065 31.6368 27.7219 30.7667C29.8125 32.3979 31.9125 34.0167 34.0031 35.6479C31.7153 37.7283 28.9263 39.1788 25.9094 39.8573C22.5794 40.6402 19.1091 40.6026 15.7969 39.7479C13.1772 39.0485 10.7302 37.8154 8.60938 36.1261C6.36457 34.3438 4.53111 32.0979 3.23438 29.5417Z" fill="#319F43"/>
</g>
<defs>
<clipPath id="clip0_358_86">
<rect width="40" height="40" fill="white" transform="translate(0.5 0.666687)"/>
</clipPath>
</defs>
</svg>
