<svg width="43" height="42" viewBox="0 0 43 42" fill="none" xmlns="http://www.w3.org/2000/svg">
<path d="M13.5001 5.99997C9.50006 2.99997 6.10006 5.19997 8.50006 9.99997C5.50006 8.99994 1.80006 10.7 5.00006 15.5C2.66673 15.8333 -0.799947 17.4 4.00005 21C1.83339 22.3333 -1.09994 25.2 4.50006 26C2.83339 27.8333 0.900061 31.2 6.50006 30C5.33339 32.1667 4.30006 36 9.50006 34C8.83339 36.3333 8.70006 40.2 13.5001 37C13.6667 39.3333 14.9001 42.9 18.5001 38.5C19.3334 40.6667 21.6001 43.7 24.0001 38.5C25.5001 40.5 28.7001 43 29.5001 37C31.6667 38.3333 35.6001 39.6 34.0001 34C36.3334 34.6667 40.2001 34.7 37.0001 29.5C39.6667 29.5 43.8001 28.4 39.0001 24C41.5001 22.8333 44.9001 19.9 38.5001 17.5C40.6667 15.3333 42.5001 11.5 36.0001 12C37.5001 9.33332 37.5001 5.00001 32.0001 7.49998C32.3334 4.83332 31.7001 0.600008 26.5001 5.00001C25.8334 2.00001 24.0001 -1.5 20.0001 4C17.8334 1.49998 14.0001 -1.00003 13.5001 5.99997Z" fill="#694B40" stroke="#694B40"/>
</svg>
