<svg width="17" height="18" viewBox="0 0 17 18" fill="none" xmlns="http://www.w3.org/2000/svg">
<circle cx="5.70129" cy="5.77625" r="4.01086" fill="white" fill-opacity="0.54"/>
<circle cx="5.70115" cy="5.77622" r="4.36521" stroke="#284E43" stroke-width="2.5"/>
<path d="M16.7041 14.9081C17.1202 15.7734 17.132 16.5688 16.5078 17.1932C15.8128 17.8882 14.9057 17.7961 13.9268 17.2343C14.658 16.9069 15.3207 16.4437 15.8516 15.9344C16.1919 15.608 16.4816 15.2577 16.7041 14.9081ZM16.043 13.8671C16.1823 14.0472 16.3086 14.2262 16.4209 14.4032C16.4193 14.4062 16.4186 14.41 16.417 14.413C16.2123 14.7931 15.8992 15.1949 15.5049 15.5731C14.9342 16.1204 14.2056 16.6037 13.415 16.9032C13.2509 16.7858 13.085 16.6579 12.9189 16.5194C13.7316 16.1903 14.4686 15.6882 15.0488 15.1317C15.4668 14.7308 15.8092 14.2951 16.043 13.8671ZM8.41992 8.14832C10.4331 9.10232 13.8389 11.31 15.6963 13.4452C15.6713 13.4991 15.6443 13.5544 15.6143 13.6102C15.4095 13.9904 15.0965 14.3921 14.7021 14.7704C14.1032 15.3449 13.3313 15.8507 12.4951 16.1454C10.4443 14.247 8.37665 11.0366 7.46191 9.10632L8.41992 8.14832Z" fill="#284E43"/>
</svg>
